<?xml version="1.0" standalone="no"?>
<!DOCTYPE svg PUBLIC "-//W3C//DTD SVG 20010904//EN"
 "http://www.w3.org/TR/2001/REC-SVG-20010904/DTD/svg10.dtd">
<svg version="1.0" xmlns="http://www.w3.org/2000/svg"
 width="700.000000pt" height="700.000000pt" viewBox="0 0 700.000000 700.000000"
 preserveAspectRatio="xMidYMid meet">
<metadata>
Created by potrace 1.11, written by Peter Selinger 2001-2013
</metadata>
<g transform="translate(0.000000,700.000000) scale(0.100000,-0.100000)"
fill="#000000" stroke="none">
<path d="M0 3500 l0 -3500 3500 0 3500 0 0 3500 0 3500 -3500 0 -3500 0 0
-3500z m485 3415 c137 -29 322 -120 388 -191 41 -44 36 -76 -20 -126 -85 -77
-110 -106 -117 -135 -13 -54 -17 -732 -8 -1368 9 -622 9 -641 30 -688 l22 -49
42 7 c628 101 1596 630 1938 1060 48 60 114 115 138 115 26 0 62 -48 62 -82 0
-66 -215 -317 -425 -498 -415 -356 -1061 -731 -1610 -935 -54 -20 -84 -39
-130 -84 -66 -65 -110 -91 -152 -91 -52 0 -199 178 -229 275 -19 64 -17 126 6
268 40 240 45 387 45 1212 0 858 -6 1000 -48 1085 -30 61 -91 105 -192 135
-63 19 -86 31 -90 46 -9 26 4 39 47 49 57 14 226 11 303 -5z m4835 -2515 c123
-30 273 -106 337 -171 79 -78 94 -128 101 -316 l5 -153 -45 0 -46 0 -11 47
c-58 228 -189 395 -358 454 -110 39 -294 43 -403 8 -130 -42 -260 -151 -319
-268 -123 -242 -146 -699 -52 -991 84 -258 225 -397 444 -437 271 -49 543 72
703 313 l56 84 45 -33 c25 -17 48 -38 51 -45 2 -7 -16 -43 -41 -80 -131 -191
-274 -296 -482 -354 -70 -19 -106 -22 -285 -22 -184 -1 -214 1 -289 22 -221
60 -383 175 -502 355 -112 171 -161 346 -162 577 -2 283 74 507 238 711 117
145 320 270 503 310 120 26 386 21 512 -11z m-3131 -30 c93 -12 133 -38 166
-105 40 -82 45 -180 45 -937 l0 -708 490 0 490 0 0 -70 c0 -65 -1 -70 -22 -70
-19 0 -16 -5 19 -35 54 -46 70 -85 52 -126 -16 -41 -115 -114 -183 -135 -50
-16 -58 -16 -142 1 -73 15 -139 18 -369 17 -154 0 -364 -4 -466 -8 l-187 -6
-5 -302 c-5 -338 -20 -453 -83 -666 -44 -146 -145 -351 -228 -461 -219 -291
-578 -511 -1003 -613 -69 -17 -72 -17 -117 2 -53 24 -68 59 -45 101 23 40 69
65 191 105 588 191 917 617 977 1266 6 63 12 216 14 339 l3 224 -120 -6 c-67
-3 -175 -15 -241 -27 -107 -18 -624 -131 -811 -176 -44 -11 -84 -14 -106 -10
-116 21 -394 296 -439 434 -11 34 -10 37 17 59 16 13 38 23 48 23 10 0 59 -39
108 -86 118 -113 191 -150 298 -148 67 2 1138 106 1218 120 l32 5 0 272 c0
309 -13 539 -31 582 -20 47 -60 84 -101 95 -54 15 -66 43 -33 76 25 25 31 26
108 22 76 -4 139 -24 275 -85 9 -4 12 69 12 348 0 370 -6 455 -37 516 -26 53
-60 74 -131 80 l-62 6 0 48 0 49 163 0 c89 0 195 -5 236 -10z m1571 -1580 c98
-27 146 -159 95 -260 -44 -85 -173 -114 -263 -60 -41 25 -71 89 -72 150 0 128
111 206 240 170z"/>
<path d="M2080 2437 c0 -24 2 -46 5 -48 12 -12 394 43 525 75 50 13 31 14
-237 15 l-293 1 0 -43z"/>
</g>
</svg>
